Simulation
nRows=42
nColumns=15
endheader
time  TH_x TH_y TH_z SC_y  SC_z  SC_x  AC_y  AC_z  AC_x  GH_y  GH_z  GH_yy  EL_x  PS_y
0.0  0.000000  0.000000  0.000000  -21.481837363305974  5.049547332879065  0.3347068766571287  39.238105608742444  0.14787450063356103  -11.362297110994831  65.88451684870651  13.720573730987219  -10.09186462828261  20.81941046964528  120.000000
0.04802000000000001  0.000000  0.000000  0.000000  -23.627553521229654  3.8612242261910334  0.4411624355685325  40.42069114716134  1.1416032209023288  -11.463573682427624  57.60457840394047  13.994985007233165  -2.7843437856502087  20.27780752587265  120.000000
0.09604000000000001  0.000000  0.000000  0.000000  -25.26214122040306  2.640394549868715  0.3794134417380642  41.55938846542959  2.072386345027208  -11.431869104770643  49.729411005876074  14.469976030648908  3.97651803059936  19.706050139474055  120.000000
0.14406000000000002  0.000000  0.000000  0.000000  -26.19198768408785  1.48599719375089  0.17927026903171717  42.56342836937696  2.955425508065371  -11.317953431289023  42.11927006907118  15.076610979783025  10.209283664461791  19.091754904112623  120.000000
0.19208000000000003  0.000000  0.000000  0.000000  -26.787000473808693  0.4896487361243766  -0.11842151419914883  43.405699374987066  3.748004246677075  -11.132732416724973  34.97465946750856  15.919016069266723  15.566710320339249  18.427505496859666  120.000000
0.24010000000000004  0.000000  0.000000  0.000000  -27.289220895087983  -0.29211412266774794  -0.46969250662609924  44.14492050761006  4.428504452450217  -10.871529348761042  28.547317104733814  17.054189964070396  19.7661458663567  17.71631068235006  120.000000
0.28812000000000004  0.000000  0.000000  0.000000  -27.894522313075022  -0.8298194970231991  -0.7972813960629365  44.79321683380008  5.00756188551763  -10.529132337197078  23.0591622933011  18.477506909206767  22.636297570043837  16.975443903761366  120.000000
0.33614000000000005  0.000000  0.000000  0.000000  -28.66988689711815  -1.1074272191079384  -1.02588213587618  45.384699336939825  5.512797307417247  -10.125570965168698  18.54126150317804  20.143761469947115  24.24441995191683  16.21838303649934  120.000000
0.38416000000000006  0.000000  0.000000  0.000000  -29.638203256497007  -1.1047627806546585  -1.090865590398063  45.93639280217647  5.956436363230177  -9.673026560013783  14.863855861151444  21.990149953710045  24.830659734746686  15.464341362892998  120.000000
0.43218000000000006  0.000000  0.000000  0.000000  -30.779284566924133  -0.819188487433895  -0.9411974573536921  46.44744701309022  6.338675255679903  -9.185439493593028  11.83030737300839  23.958494722568734  24.694689220184745  14.725428558917356  120.000000
0.48020000000000007  0.000000  0.000000  0.000000  -32.07341636827889  -0.24969893380488306  -0.5422156704196553  46.92036994316749  6.6403310802501645  -8.67292665091651  9.278149718431687  26.013378494505744  24.093172471752528  14.017982121793574  120.000000
0.5282200000000001  0.000000  0.000000  0.000000  -33.4921811731187  0.5859390287343805  0.12428159500738857  47.350010121069936  6.835241965724669  -8.142583877110313  7.084780901063327  28.132351008864983  23.229606658271155  13.351720659528183  120.000000
0.5762400000000001  0.000000  0.000000  0.000000  -35.012947039651884  1.6571275420539506  1.0574896664688527  47.73773363814467  6.89551352080936  -7.602321045108453  5.1830121590935905  30.302344755456804  22.238436658192775  12.735062292623017  120.000000
0.62426  0.000000  0.000000  0.000000  -36.60900607847095  2.9171889422575714  2.240313598922608  48.08537918899918  6.798848605325248  -7.059842255874076  3.5336062097287826  32.503865416283375  21.207163538361147  12.170898838046076  120.000000
0.6722800000000001  0.000000  0.000000  0.000000  -38.252876507047205  4.317687545959322  3.6413689891934022  48.399291249400584  6.538923232004299  -6.516087338302549  2.128629291320428  34.711149897107184  20.166985301640427  11.659641704277211  120.000000
0.7203000000000002  0.000000  0.000000  0.000000  -39.91133816533038  5.8142035305038275  5.226120531486342  48.68917484787107  6.12401728301737  -5.970046581370861  0.9754982683291644  36.8967100192973  19.10707808428025  11.195601868784067  120.000000
0.7683200000000001  0.000000  0.000000  0.000000  -41.55221782897882  7.365670232587427  6.974003126978402  48.96639005602403  5.565412542575272  -5.429603331231053  0.08529204334968654  39.035946277050385  17.988607840816098  10.766436365349797  120.000000
0.8163400000000001  0.000000  0.000000  0.000000  -43.14496501617312  8.93425021196729  8.876422172624281  49.237687980136656  4.875423691186274  -4.910583946161261  -0.541310067167061  41.10896393425935  16.765034150418533  10.352043071141706  120.000000
0.8643600000000001  0.000000  0.000000  0.000000  -44.66636997372883  10.486694463675867  10.928674305593955  49.50630266608219  4.068030242786329  -4.434086381509222  -0.9178194061522221  43.102321312784525  15.399177981565401  9.931140319756473  120.000000
0.9123800000000002  0.000000  0.000000  0.000000  -46.099486269291354  11.993294444399416  13.126847765479758  49.76739927911737  3.157517400444655  -4.021627729849884  -1.0761572557480803  45.007884661999604  13.878460578664793  9.48695037215226  120.000000
0.9604000000000001  0.000000  0.000000  0.000000  -47.43539829232321  13.430410905888854  15.46253809125665  50.012181940170166  2.1573025019118703  -3.695443483228373  -1.064079738150051  46.821001541657886  12.22392083063826  9.01690791400723  120.000000
1.00842  0.000000  0.000000  0.000000  -48.66980847666669  14.77861881344289  17.919855275449507  50.22684714595097  1.0804286781201553  -3.4738374775284013  -0.9412789967583193  48.53581852789029  10.489781262323273  8.533795053299809  120.000000
1.0564400000000003  0.000000  0.000000  0.000000  -49.80128607338987  16.021965437003296  20.472711168253095  50.39863890007651  -0.059102008618520316  -3.372099449206486  -0.7716474181940256  50.14002436810535  8.755370627079609  8.062449475423854  120.000000
1.1044600000000002  0.000000  0.000000  0.000000  -50.828610585496925  17.146817663008253  23.083439962205382  50.51836149257682  -1.2446627953545006  -3.399939219495424  -0.6152060868313021  51.6135057490157  7.110486940910469  7.631387191598528  120.000000
1.1524800000000002  0.000000  0.000000  0.000000  -51.75092664875261  18.1406949692921  25.704371136406596  50.58259411561761  -2.455779866579662  -3.5580859091731645  -0.5209541154215055  52.932430223194075  5.641286943949261  7.266107212392897  120.000000
1.2005000000000001  0.000000  0.000000  0.000000  -52.56721878062027  18.99538931433518  28.27624426372207  50.59583887152883  -3.669972995109218  -3.8375983329232395  -0.5215227114494162  54.074938881669226  4.418862157983604  6.985496725282395  120.000000
1.24852  0.000000  0.000000  0.000000  -53.27576581330091  19.705495029495548  30.73389224243602  50.56947853958633  -4.863747892327117  -4.218769016773419  -0.6345962183061876  55.02529964903791  3.494179438515125  6.801193738207491  120.000000
1.2965400000000002  0.000000  0.000000  0.000000  -53.87530807041296  20.27055191047674  33.01005556767039  50.52037488377905  -6.01281177860265  -4.674675397477282  -0.8650351710714896  55.77786816215301  2.8956614687841453  6.719013970136897  120.000000
1.3445600000000002  0.000000  0.000000  0.000000  -54.36675009284045  20.691834767474315  35.04534950397326  50.4689198226713  -7.089873948471762  -5.171425337676763  -1.2090845525786098  56.338809176479174  2.6285192454290436  6.7367253865759205  120.000000
1.3925800000000002  0.000000  0.000000  0.000000  -54.75515233928353  20.971299941914403  36.796097291306175  50.43926918197314  -8.06215467386652  -5.669529507339136  -1.6568192534060275  56.72592619608337  2.673627080897055  6.839701787064954  120.000000
1.4406000000000003  0.000000  0.000000  0.000000  -55.04999218235059  21.109743670424905  38.24204471730165  50.45834968412389  -8.89220257723952  -6.125749328081054  -2.1954704198102224  56.96663846585585  2.990198752842362  6.997751636987895  120.000000
1.4886200000000003  0.000000  0.000000  0.000000  -55.262530622644384  21.109432879037403  39.38951280113026  50.54974633714533  -9.541153016631768  -6.498502823194312  -2.8089098492416955  57.090751215791045  3.5199536194658125  7.167163400126767  120.000000
1.5366400000000002  0.000000  0.000000  0.000000  -55.402750632275236  20.98138090208885  40.268456508507064  50.72570903130235  -9.979380780563991  -6.757280226620355  -3.4739935347975845  57.1238829257474  4.195485128855537  7.301086648570752  120.000000
1.5846600000000002  0.000000  0.000000  0.000000  -55.477836066107955  20.756975873264018  40.930283180117776  50.97416839072484  -10.202445309182028  -6.891002253288153  -4.153615128859514  57.073337030430444  4.94589843390772  7.361710192089497  120.000000
1.6326800000000001  0.000000  0.000000  0.000000  -55.50846864748078  20.50701496390477  41.450740887582846  51.247172861340445  -10.264141072985543  -6.9203104538004965  -4.782270263718864  56.92143687931655  5.700082675485436  7.338825308086556  120.000000
1.6807000000000003  0.000000  0.000000  0.000000  -55.51256875700277  20.289950135561547  41.89997759285016  51.47930309845615  -10.249934313197224  -6.912958092713279  -5.277120837111216  56.653146982035764  6.3928392434943655  7.250289372496931  120.000000
1.7287200000000003  0.000000  0.000000  0.000000  -55.49039818697338  20.112033483612493  42.294177767906454  51.639254848963894  -10.202952651312835  -6.92453880767406  -5.5824241585930885  56.25068496125904  6.983147260439118  7.124242158655962  120.000000
1.7767400000000002  0.000000  0.000000  0.000000  -55.441682050673755  19.974354785646245  42.615999594088365  51.7311720814617  -10.133819474015425  -6.9534913317425255  -5.675068155682014  55.65655160601871  7.451254575765092  6.992330180441263  120.000000
1.8247600000000004  0.000000  0.000000  0.000000  -55.36173916995735  19.890560293553918  42.84538975349089  51.756916254400075  -10.058030319274874  -6.9884166101216225  -5.535723930755734  54.78778885401105  7.777338009538806  6.894265693538592  120.000000
1.8727800000000003  0.000000  0.000000  0.000000  -55.239839760109284  19.87705647584233  42.95429098295082  51.711882184528406  -9.990771857683177  -7.023370898809851  -5.1454384887782405  53.55294464512751  7.93480789736883  6.874073161189502  120.000000
1.9208000000000003  0.000000  0.000000  0.000000  -55.069192721282334  19.951365822656243  42.910140422675  51.58890482608403  -9.946345647016999  -7.051772293938303  -4.4857688094408985  51.859234275127015  7.8936291284729165  6.976475532702587  120.000000
1.9688200000000002  0.000000  0.000000  0.000000  -54.85305878671211  20.127110099498278  42.67818786690073  51.38623783668791  -9.93836592579888  -7.067217462623521  -3.535928747600879  49.62923073914265  7.629415993761128  7.242017559416287  120.000000
